# xmcd
#
# Track frame offsets: 
#        150
#        22185
#        44544
#        56510
#        71850
#        100963
#        122114
#        149020
#        158085
#        171197
#        189380
#        208942
#        231527
#        252615
#        259764
#        278004
#        297078
#        303846
#
# Disc length: 4381 seconds
#
# Revision: 0
# Processed by: cddbd v1.4PL0 Copyright (c) Steve Scherf et al.
# Submitted via: ExactAudioCopy v0.90b3
#
DISCID=1f111b12
DTITLE=Mark Knopfler - Silvertown Blues (the best hits)
DYEAR=2002
DGENRE=Blues
TTITLE0=going home (theme from the local hero)
TTITLE1=what it is?
TTITLE2=brats
TTITLE3=yakety axe
TTITLE4=there'll be some changes made
TTITLE5=metroland (full version)
TTITLE6=rudiger
TTITLE7=an american hero
TTITLE8=camerado
TTITLE9=the way it always starts
TTITLE10=storybook love
TTITLE11=golden heart
TTITLE12=wag the dog
TTITLE13=a walk in paris
TTITLE14=poor boy blues
TTITLE15=stretching out
TTITLE16=florin dance
TTITLE17=tralala
EXTD=
EXTT0=
EXTT1=
EXTT2=
EXTT3=
EXTT4=
EXTT5=
EXTT6=
EXTT7=
EXTT8=
EXTT9=
EXTT10=
EXTT11=
EXTT12=
EXTT13=
EXTT14=
EXTT15=
EXTT16=
EXTT17=
PLAYORDER=
